# xmcd CD database file
#
# Track frame offsets:
#	150
#	10630
#	19987
#	32192
#	42613
#	54112
#	65662
#	76972
#	90645
#	108973
#	121078
#	136147
#	145922
#	154848
#	169686
#	182268
#	195775
#	204872
#	228634
#
# Disc length: 3588 seconds
#
# Revision: 0
# Processed by: cddbd v1.5.2PL0 Copyright (c) Steve Scherf et al.
# Submitted via: CDex 1.51
#
DISCID=ea0e0213
DTITLE=Honza Vycital - Vraceci kocour
DYEAR=2007
DGENRE=Country
TTITLE0=Kdyz u nas Pete Seeger hral
TTITLE1=Pojd se mnou par dni nadherne hrat
TTITLE2=Pivni dzip
TTITLE3=Billy
TTITLE4=Dlouhy cerny zavoj
TTITLE5=Adios, cas nespoutas
TTITLE6=Vem me k vam
TTITLE7=Vraceci kocour
TTITLE8=Sterk a sul s peprem
TTITLE9=Mladsi holky, lepsi dzipy
TTITLE10=Kotlik z medi
TTITLE11=Redback pod prkynkem hajzliku
TTITLE12=Dva tulaci
TTITLE13=Cadillac
TTITLE14=Jestrab cas
TTITLE15=Hvezda tva, indianska
TTITLE16=Modry mesic
TTITLE17=To tenkrat v ctyricatom patom
TTITLE18=video bonus - Australskej kolac
EXTD=YEAR: 2007
EXTT0=
EXTT1=
EXTT2=
EXTT3=
EXTT4=
EXTT5=
EXTT6=
EXTT7=
EXTT8=
EXTT9=
EXTT10=
EXTT11=
EXTT12=
EXTT13=
EXTT14=
EXTT15=
EXTT16=
EXTT17=
EXTT18=
PLAYORDER=
